<?xml version="1.0" encoding="UTF-8"?>
<svg xmlns="http://www.w3.org/2000/svg" xmlns:xlink="http://www.w3.org/1999/xlink" viewBox="0 0 50 50" width="50px" height="50px">
<g id="surface129894830">
<path style=" stroke:none;fill-rule:nonzero;fill:rgb(100%,100%,100%);fill-opacity:1;" d="M 0 25 C 0 11.191406 11.191406 0 25 0 C 38.808594 0 50 11.191406 50 25 C 50 38.808594 38.808594 50 25 50 C 11.191406 50 0 38.808594 0 25 Z M 25 49 C 38.253906 49 49 38.253906 49 25 C 49 11.746094 38.253906 1 25 1 C 11.746094 1 1 11.746094 1 25 C 1 38.253906 11.746094 49 25 49 Z M 25 49 "/>
<path style=" stroke:none;fill-rule:nonzero;fill:rgb(100%,100%,100%);fill-opacity:1;" d="M 19.421875 11.359375 C 14.976562 11.359375 11.359375 14.976562 11.359375 19.421875 L 11.359375 30.578125 C 11.359375 35.023438 14.976562 38.640625 19.421875 38.640625 L 30.578125 38.640625 C 35.023438 38.640625 38.640625 35.023438 38.640625 30.578125 L 38.640625 19.421875 C 38.640625 14.976562 35.023438 11.359375 30.578125 11.359375 Z M 19.421875 12.601562 L 30.578125 12.601562 C 34.355469 12.601562 37.398438 15.644531 37.398438 19.421875 L 37.398438 30.578125 C 37.398438 34.355469 34.355469 37.398438 30.578125 37.398438 L 19.421875 37.398438 C 15.644531 37.398438 12.601562 34.355469 12.601562 30.578125 L 12.601562 19.421875 C 12.601562 15.644531 15.644531 12.601562 19.421875 12.601562 Z M 32.441406 16.320312 C 31.753906 16.320312 31.199219 16.875 31.199219 17.558594 C 31.199219 18.246094 31.753906 18.800781 32.441406 18.800781 C 33.125 18.800781 33.679688 18.246094 33.679688 17.558594 C 33.679688 16.875 33.125 16.320312 32.441406 16.320312 Z M 25 18.179688 C 21.242188 18.179688 18.179688 21.242188 18.179688 25 C 18.179688 28.757812 21.242188 31.820312 25 31.820312 C 28.757812 31.820312 31.820312 28.757812 31.820312 25 C 31.820312 21.242188 28.757812 18.179688 25 18.179688 Z M 25 19.421875 C 28.089844 19.421875 30.578125 21.910156 30.578125 25 C 30.578125 28.089844 28.089844 30.578125 25 30.578125 C 21.910156 30.578125 19.421875 28.089844 19.421875 25 C 19.421875 21.910156 21.910156 19.421875 25 19.421875 Z M 25 19.421875 "/>
</g>
</svg>
